<svg width="32" height="32" viewBox="0 0 32 32" xmlns="http://www.w3.org/2000/svg">
  <circle cx="16" cy="16" r="15" fill="#FF1801" stroke="#fff" stroke-width="2"/>
  <!-- Checkered flag pattern -->
  <rect x="8" y="8" width="3" height="3" fill="#fff"/>
  <rect x="11" y="8" width="3" height="3" fill="#000"/>
  <rect x="14" y="8" width="3" height="3" fill="#fff"/>
  <rect x="17" y="8" width="3" height="3" fill="#000"/>
  <rect x="20" y="8" width="3" height="3" fill="#fff"/>
  
  <rect x="8" y="11" width="3" height="3" fill="#000"/>
  <rect x="11" y="11" width="3" height="3" fill="#fff"/>
  <rect x="14" y="11" width="3" height="3" fill="#000"/>
  <rect x="17" y="11" width="3" height="3" fill="#fff"/>
  <rect x="20" y="11" width="3" height="3" fill="#000"/>
  
  <rect x="8" y="14" width="3" height="3" fill="#fff"/>
  <rect x="11" y="14" width="3" height="3" fill="#000"/>
  <rect x="14" y="14" width="3" height="3" fill="#fff"/>
  <rect x="17" y="14" width="3" height="3" fill="#000"/>
  <rect x="20" y="14" width="3" height="3" fill="#fff"/>
  
  <rect x="8" y="17" width="3" height="3" fill="#000"/>
  <rect x="11" y="17" width="3" height="3" fill="#fff"/>
  <rect x="14" y="17" width="3" height="3" fill="#000"/>
  <rect x="17" y="17" width="3" height="3" fill="#fff"/>
  <rect x="20" y="17" width="3" height="3" fill="#000"/>
  
  <rect x="8" y="20" width="3" height="3" fill="#fff"/>
  <rect x="11" y="20" width="3" height="3" fill="#000"/>
  <rect x="14" y="20" width="3" height="3" fill="#fff"/>
  <rect x="17" y="20" width="3" height="3" fill="#000"/>
  <rect x="20" y="20" width="3" height="3" fill="#fff"/>
</svg>